<svg id="Warstwa_1" data-name="Warstwa 1" xmlns="http://www.w3.org/2000/svg" preserveAspectRatio="none" viewBox="0 0 96.03 742.89"><defs><style>.cls-1{fill:#259447;stroke:#1d1d1b;stroke-miterlimit:10;stroke-width:0.75px;}</style></defs><path class="cls-1" d="M21.79,771.3c1.64-9.47,3.16-18.95,4.92-28.4,3.7-19.76,7.6-39.48,11.27-59.24,6.16-33.17,13.27-66.22,18-99.59,4.78-33.55,3.47-67.38-.43-101.09-5.2-44.85-14.72-88.88-24.09-133-8.82-41.48-17.36-83-22.15-125.22C4,177.5,3.22,130.16,8.42,82.82,10.17,67,12.65,51.17,14.89,35.36a44.28,44.28,0,0,1,1.82-6.19h6.22a62.49,62.49,0,0,1,1.13,8.23c.16,17.3,0,34.61.27,51.92A664.34,664.34,0,0,0,35.27,201.07c5.87,31.17,13.38,62,20.74,92.9,7.29,30.54,16.05,60.74,22.81,91.39,6.72,30.49,12.74,61.21,17.27,92.09,5.2,35.49,5.14,71.28,1.46,107.05-3.93,38.19-12.92,75.31-22.21,112.43-5.8,23.21-10.89,46.61-16.26,69.93a28.39,28.39,0,0,0-.31,4.44Z" transform="translate(-4.51 -28.79)"/></svg>