<svg id="Warstwa_3" data-name="Warstwa 3" xmlns="http://www.w3.org/2000/svg" preserveAspectRatio="none" viewBox="0 0 92.58 764.26"><defs><style>.cls-1{fill:#259447;stroke:#1d1d1b;stroke-miterlimit:10;stroke-width:0.75px;}</style></defs><path class="cls-1" d="M54.64,773.82c8.74.49,17.42,1.93,26.18,2.17,4.37.11,9.25.68,14,.69-.12-1.29-.3-2.57-.54-3.83-2.19-11.2-7-21.73-10.71-32.5-7.89-22.65-16.44-45-23.63-68-10.22-32.58-13.79-66.74-13.64-101.14.13-29.44,1.18-59,4-88.26,4.46-46.43,11.26-92.54,16-138.93,4.06-39.41,7.72-78.95,9.64-118.56,2.66-54.75,1.68-109.54-4.45-164Q69.08,40,65.81,18.66c-.31-2-3-3.53-4.55-5.29-1.39,1.73-3.06,3.27-4.07,5.26-.62,1.22-.26,3.14-.27,4.74-.08,20.25.28,40.52-.3,60.76A1500.56,1500.56,0,0,1,43.53,246.4c-4.78,34.83-10.27,69.53-15.39,104.3C21.19,397.92,13.56,445,7.57,492.41c-5.87,46.42-6.29,93.12-.12,139.71,3.2,24.09,8.12,47.67,16.27,70.11,8.84,24.36,18.55,48.3,27.67,72.53A4.65,4.65,0,0,1,54.64,773.82Z" transform="translate(-2.62 -12.8)"/></svg>