<svg id="Warstwa_3" data-name="Warstwa 3" xmlns="http://www.w3.org/2000/svg" preserveAspectRatio="none" viewBox="0 0 92.58 764.26"><defs><style>.cls-1{fill:#259447;stroke:#1d1d1b;stroke-miterlimit:10;stroke-width:0.75px;}</style></defs><path class="cls-1" d="M43.15,773.82c-8.75.49-17.43,1.93-26.19,2.17-4.36.11-9.24.68-14,.69a37.54,37.54,0,0,1,.54-3.83c2.19-11.2,7-21.73,10.71-32.5,7.89-22.65,16.44-45,23.63-68,10.22-32.58,13.79-66.74,13.63-101.14-.13-29.44-1.17-59-4-88.26-4.45-46.43-11.25-92.54-16-138.93-4.06-39.41-7.72-78.95-9.65-118.56C19.2,170.76,20.18,116,26.3,61.46Q28.72,40,32,18.66c.31-2,3-3.53,4.55-5.29,1.39,1.73,3.06,3.27,4.07,5.26.62,1.22.26,3.14.27,4.74.08,20.25-.28,40.52.29,60.76A1503.1,1503.1,0,0,0,54.25,246.4c4.79,34.83,10.28,69.53,15.4,104.3C76.6,397.92,84.22,445,90.21,492.41c5.87,46.42,6.29,93.12.12,139.71-3.19,24.09-8.12,47.67-16.26,70.11-8.84,24.36-18.55,48.3-27.68,72.53A4.61,4.61,0,0,0,43.15,773.82Z" transform="translate(-2.58 -12.8)"/></svg>