<svg id="Warstwa_2" data-name="Warstwa 2" xmlns="http://www.w3.org/2000/svg" viewBox="0 0 57.92 763.33"><defs><style>.cls-1{fill:#259447;stroke:#1d1d1b;stroke-miterlimit:10;stroke-width:0.75px;}</style></defs><path class="cls-1" d="M34.66,773.2c1.34-11.85,2.58-23.72,4.05-35.56a527.28,527.28,0,0,0,3.85-89.23c-2.13-46-5.22-91.87-8.46-137.76-3-42.61-8-85.11-9.86-127.77-2.07-47.58-2.36-95.3-2-142.94a788.66,788.66,0,0,1,11-123.11c5.18-31,12.47-61.47,25.11-90.12a127.62,127.62,0,0,1,6.53-12.89c.8-1.38,2.72-2,4.12-3,.54,2,1.86,4.24,1.45,6-1.25,5.36-3.33,10.5-4.81,15.82-7.92,28.38-11.43,57.58-13.43,87-3.73,54.67-2.71,109.36.46,164,1.87,32.36,3.93,64.71,6.63,97,2.68,32.08,6.47,64,9.39,96.11,3,32.6,5.81,65.22,8.09,97.88,1.46,20.89,2.76,41.89,2.44,62.8-.43,27.46-1.91,55-4.12,82.31-1.44,17.89-5,35.59-7.59,53.38Z" transform="translate(-21.75 -10.25)"/></svg>