<svg id="Warstwa_1" data-name="Warstwa 1" xmlns="http://www.w3.org/2000/svg" preserveAspectRatio="none" viewBox="0 0 132.11 124.93"><defs><style>.cls-1{fill:#e66069;}</style></defs><path d="M58.38,121A25,25,0,0,0,57,108.19a10.36,10.36,0,0,0-4-5,49.79,49.79,0,0,0-4.45-2.51A44.82,44.82,0,0,1,31.27,86.09a23.5,23.5,0,0,1-4.55-12.65,11.24,11.24,0,0,0-3-7.11,31.64,31.64,0,0,0-4.44-4.22c-2.34-1.8-4.86-3.36-7.28-5a23.91,23.91,0,0,1-3-2.26,7.57,7.57,0,0,1-.74-10.22,7.73,7.73,0,0,1,10.14-1.72c3.3,2.23,6.58,4.48,9.88,6.71.53.35,1.09.66,1.83,1.1a36,36,0,0,0,1.5-6.11,40.91,40.91,0,0,0,.73-15.24,7.32,7.32,0,0,1,3.69-7.83,8,8,0,0,1,8.67.69,6,6,0,0,1,2.43,3.6,39.28,39.28,0,0,1,.64,4c.65,7-.29,13.84-1.73,20.66q-1.76,8.34-3.39,16.7c-.28,1.44-.25,2.94-.43,4.4a8.76,8.76,0,0,0,2.08,6.65,25,25,0,0,0,6.73,6.24c3.88,2.31,7.9,4.4,12.1,6.72.79-2.08,1.56-3.93,2.19-5.83a92.39,92.39,0,0,0,4.68-28.5c0-3.51-.35-7-.6-10.55a10.31,10.31,0,0,0-2-5.33A45.64,45.64,0,0,0,53.22,27.88c-.68-.41-1.41-.75-2.08-1.18a7.06,7.06,0,0,1-2.58-9.53,7.57,7.57,0,0,1,9.42-4,18.88,18.88,0,0,1,2.75,1.34A57.6,57.6,0,0,1,73.89,24.71l2.25,2.34c.75-1,1.41-1.92,2-2.83a57.56,57.56,0,0,1,9.88-10.8,9.18,9.18,0,0,1,4.83-2.36,7.38,7.38,0,0,1,7.85,4.2A7.43,7.43,0,0,1,99.24,24c-.57.55-1.21,1-1.8,1.57A39.08,39.08,0,0,0,87.91,38c-.74,1.53-1.61,3-2.47,4.48a4.4,4.4,0,0,0-.8,2.54c.3,5.56.56,11.11.85,16.85a7.25,7.25,0,0,0,1.47-.3c2.2-.9,4.38-1.85,6.65-2.82A9.34,9.34,0,0,0,93.36,55a54.17,54.17,0,0,1,.93-21c.08-.33.17-.66.27-1,2-6.68,9.24-6.47,12.64-3.39a7.39,7.39,0,0,1,1.69,8.74c-.44,1-1.11,2-1.56,3-2.08,4.8-1.45,9.26,1.71,13.54,6-1.14,11.67-2.55,16.49-6.29a9.35,9.35,0,0,1,5.27-2.18,7.62,7.62,0,0,1,5.4,13.26,40.29,40.29,0,0,1-10.56,6.19,100,100,0,0,1-17,4.79,78.13,78.13,0,0,0-13.38,4,45.63,45.63,0,0,0-11.39,6.79,6.61,6.61,0,0,0-2.42,3.57,98.24,98.24,0,0,1-7.66,20,6.18,6.18,0,0,0-.62,4,65,65,0,0,1,0,19,12.73,12.73,0,0,1-.93,3.6,7.21,7.21,0,0,1-8.5,4,7.35,7.35,0,0,1-5.88-7.36c0-.88.08-1.77.13-2.86m4.36-.48c-.14,1.34-.31,2.35-.33,3.36a3.5,3.5,0,0,0,3,3.55,3.28,3.28,0,0,0,3.54-2.08,9,9,0,0,0,.54-2.3,60.14,60.14,0,0,0,0-17.67,9.63,9.63,0,0,1,.88-6.29,98.91,98.91,0,0,0,7.66-20,9.51,9.51,0,0,1,3.36-5,49.84,49.84,0,0,1,19.29-9.88c4.82-1.31,9.74-2.29,14.59-3.51,5.76-1.46,11.36-3.34,16.31-6.75a20.11,20.11,0,0,0,2.43-1.87,3.33,3.33,0,0,0,.58-4.07,3.24,3.24,0,0,0-3.39-1.78,6,6,0,0,0-3,1.5A30.75,30.75,0,0,1,118.06,57c-2.18.65-4.41,1.11-6.6,1.74-3.06.88-5.59-.41-7.07-3.23-2.9-5.51-3.25-11-.35-16.65.47-.9.91-1.82,1.33-2.76a2.61,2.61,0,0,0-.32-2.6,3.82,3.82,0,0,0-3.83-1.72,3.15,3.15,0,0,0-2.68,2.32c-.15.42-.23.88-.34,1.32a48,48,0,0,0-.82,18.95c.34,2.33.91,4.62,1.41,7.06-.66.23-1.18.43-1.71.6a67.22,67.22,0,0,0-11.32,4.74,7.68,7.68,0,0,1-1.23.58A2.71,2.71,0,0,1,80.83,65a10.32,10.32,0,0,1,.06-1.36c.09-3.3.27-6.59.24-9.88,0-2.5-.27-5-.53-7.48a8.61,8.61,0,0,1,1.45-6.15,28,28,0,0,0,2.12-3.88A43.88,43.88,0,0,1,94.75,22.6,22.6,22.6,0,0,0,96.52,21a3.33,3.33,0,0,0,.2-4.39,3.22,3.22,0,0,0-3.94-1.18A10.93,10.93,0,0,0,90,17.3a53.32,53.32,0,0,0-9.39,10.77A20.77,20.77,0,0,1,79,30.32a3.51,3.51,0,0,1-5.16.47,18.46,18.46,0,0,1-1.87-2A54.71,54.71,0,0,0,58.77,18.15,14.25,14.25,0,0,0,56.31,17c-1.54-.5-3.32.52-4.13,2.23a3,3,0,0,0,1,3.93c.73.53,1.56.92,2.34,1.39A49,49,0,0,1,71.22,39.4a10.62,10.62,0,0,1,2.07,5.33c.26,4.19.84,8.38.81,12.57a90.16,90.16,0,0,1-1.75,17.63,96.83,96.83,0,0,1-5.51,18.24c-1.27,3-3.18,3.56-5.91,1.85-2.31-1.45-4.68-2.79-7-4.15-1.38-.79-2.83-1.46-4.18-2.31a31.43,31.43,0,0,1-8.78-8A12.39,12.39,0,0,1,38.16,72c.15-1.7.19-3.41.49-5.08q1.2-6.72,2.61-13.38c1.25-5.9,2.62-11.78,2.63-17.85,0-2.61-.18-5.22-.42-7.82A3.21,3.21,0,0,0,41,24.92a3.47,3.47,0,0,0-4.56,4.14A39.63,39.63,0,0,1,36.15,43c-.66,3.46-1.36,6.91-2.2,10.33-.67,2.7-3,3.48-5.26,1.92-.28-.19-.51-.45-.79-.65L16.72,46.75a4.76,4.76,0,0,0-1.19-.65,3.7,3.7,0,0,0-4.21,1.45,3.33,3.33,0,0,0,.4,4.09,14.7,14.7,0,0,0,2.37,1.93c2.33,1.63,4.8,3.08,7,4.85A47.67,47.67,0,0,1,27.06,64a14.09,14.09,0,0,1,3.7,9,19.66,19.66,0,0,0,3.81,10.77,39.43,39.43,0,0,0,13.29,12c1.69.95,3.43,1.8,5.14,2.7a16.66,16.66,0,0,1,9,11.83,60.76,60.76,0,0,1,.75,6.76c.11,1.11.1,2.22.15,3.48" transform="translate(-6.66 -10.99)"/><path class="cls-1" d="M62.85,120.56c-.05-1.26,0-2.37-.15-3.48a60.76,60.76,0,0,0-.75-6.76,16.66,16.66,0,0,0-9-11.83c-1.71-.9-3.45-1.75-5.14-2.7a39.43,39.43,0,0,1-13.29-12A19.66,19.66,0,0,1,30.76,73a14.09,14.09,0,0,0-3.7-9,47.67,47.67,0,0,0-5.95-5.59c-2.22-1.77-4.69-3.22-7-4.85a14.7,14.7,0,0,1-2.37-1.93,3.33,3.33,0,0,1-.4-4.09,3.7,3.7,0,0,1,4.21-1.45,4.76,4.76,0,0,1,1.19.65L27.9,54.57c.28.2.51.46.79.65,2.25,1.56,4.59.78,5.26-1.92.84-3.42,1.54-6.87,2.2-10.33a39.63,39.63,0,0,0,.29-13.91A3.47,3.47,0,0,1,41,24.92a3.21,3.21,0,0,1,2.47,2.95c.24,2.6.42,5.21.42,7.82,0,6.07-1.38,12-2.63,17.85q-1.41,6.66-2.61,13.38c-.3,1.67-.34,3.38-.49,5.08a12.39,12.39,0,0,0,2.76,8.57,31.43,31.43,0,0,0,8.78,8c1.35.85,2.8,1.52,4.18,2.31,2.37,1.36,4.74,2.7,7,4.15,2.73,1.71,4.64,1.19,5.91-1.85a96.83,96.83,0,0,0,5.51-18.24A90.16,90.16,0,0,0,74.1,57.3c0-4.19-.55-8.38-.81-12.57a10.62,10.62,0,0,0-2.07-5.33A49,49,0,0,0,55.47,24.52c-.78-.47-1.61-.86-2.34-1.39a3,3,0,0,1-1-3.93c.81-1.71,2.59-2.73,4.13-2.23a14.25,14.25,0,0,1,2.46,1.18A54.71,54.71,0,0,1,72,28.81a18.46,18.46,0,0,0,1.87,2A3.51,3.51,0,0,0,79,30.32a20.77,20.77,0,0,0,1.54-2.25A53.32,53.32,0,0,1,90,17.3a10.93,10.93,0,0,1,2.81-1.87,3.22,3.22,0,0,1,3.94,1.18,3.33,3.33,0,0,1-.2,4.39,22.6,22.6,0,0,1-1.77,1.6A43.88,43.88,0,0,0,84.17,36.28a28,28,0,0,1-2.12,3.88,8.61,8.61,0,0,0-1.45,6.15c.26,2.48.5,5,.53,7.48,0,3.29-.15,6.58-.24,9.88A10.32,10.32,0,0,0,80.83,65a2.71,2.71,0,0,0,3.7,2.36,7.68,7.68,0,0,0,1.23-.58,67.22,67.22,0,0,1,11.32-4.74c.53-.17,1-.37,1.71-.6-.5-2.44-1.07-4.73-1.41-7.06a48,48,0,0,1,.82-18.95c.11-.44.19-.9.34-1.32a3.15,3.15,0,0,1,2.68-2.32,3.82,3.82,0,0,1,3.83,1.72,2.61,2.61,0,0,1,.32,2.6c-.42.94-.86,1.86-1.33,2.76-2.9,5.62-2.55,11.14.35,16.65,1.48,2.82,4,4.11,7.07,3.23,2.19-.63,4.42-1.09,6.6-1.74a30.75,30.75,0,0,0,9.73-4.82,6,6,0,0,1,3-1.5,3.24,3.24,0,0,1,3.39,1.78,3.33,3.33,0,0,1-.58,4.07,20.11,20.11,0,0,1-2.43,1.87c-5,3.41-10.55,5.29-16.31,6.75-4.85,1.22-9.77,2.2-14.59,3.51A49.84,49.84,0,0,0,81,78.58a9.51,9.51,0,0,0-3.36,5,98.91,98.91,0,0,1-7.66,20,9.63,9.63,0,0,0-.88,6.29,60.14,60.14,0,0,1,0,17.67,9,9,0,0,1-.54,2.3A3.28,3.28,0,0,1,65,131.9a3.5,3.5,0,0,1-3-3.55c0-1,.19-2,.33-3.36" transform="translate(-6.66 -10.99)"/></svg>